<svg width="200" height="200" viewBox="0 0 200 200" fill="none" xmlns="http://www.w3.org/2000/svg">
<circle cx="100" cy="100" r="100" fill="#8EDBFF" fill-opacity="0.4"/>
<path d="M82.25 40.8333C66.7483 40.8333 54.1458 53.4358 54.1458 68.9375C54.1458 84.1433 66.0383 96.45 81.54 96.9825C82.0133 96.9233 82.4867 96.9233 82.8417 96.9825H83.2558C90.5295 96.7398 97.4238 93.6779 102.481 88.4442C107.538 83.2105 110.361 76.2152 110.354 68.9375C110.354 53.4358 97.7517 40.8333 82.25 40.8333ZM112.307 112.715C95.7992 101.71 68.8783 101.71 52.2525 112.715C44.7383 117.744 40.5967 124.548 40.5967 131.826C40.5967 139.103 44.7383 145.848 52.1933 150.818C60.4767 156.38 71.3633 159.161 82.25 159.161C93.1367 159.161 104.023 156.38 112.307 150.818C119.762 145.789 123.903 139.044 123.903 131.707C123.844 124.43 119.762 117.685 112.307 112.715ZM147.274 72.4165C148.221 83.8948 140.056 93.9532 128.755 95.314H128.459C128.104 95.314 127.749 95.314 127.453 95.4323C121.714 95.7282 116.448 93.894 112.484 90.5215C118.578 85.0782 122.069 76.9132 121.359 68.0382C120.953 63.4232 119.386 58.986 116.803 55.1398C119.904 53.6316 123.324 52.9002 126.77 53.0088C130.216 53.1174 133.584 54.0627 136.583 55.7632C139.582 57.4637 142.123 59.8683 143.985 62.7696C145.848 65.6708 146.977 68.9817 147.274 72.4165Z" fill="#1998D3"/>
<path d="M159.096 127.158C158.623 132.897 154.954 137.867 148.801 141.239C142.884 144.493 135.429 146.032 128.034 145.854C132.294 142.008 134.779 137.216 135.252 132.128C135.844 124.791 132.353 117.75 125.371 112.129C121.407 108.993 116.792 106.508 111.763 104.674C124.839 100.888 141.287 103.432 151.404 111.597C156.848 115.975 159.629 121.478 159.096 127.158Z" fill="#1998D3"/>
</svg>
