<svg width="24" height="24" viewBox="0 0 24 24" fill="none" xmlns="http://www.w3.org/2000/svg">
<path d="M7.87804 12.07C7.87804 11.66 8.21804 11.32 8.62804 11.32H14.108V2.86C14.1057 2.63092 14.0129 2.41204 13.85 2.25098C13.6871 2.08993 13.4671 1.99972 13.238 2C7.34804 2 3.23804 6.11 3.23804 12C3.23804 17.89 7.34804 22 13.238 22C13.708 22 14.098 21.62 14.098 21.14V12.81H8.62804C8.5298 12.8121 8.43214 12.7945 8.34083 12.7582C8.24952 12.7219 8.16643 12.6677 8.09649 12.5987C8.02655 12.5297 7.97117 12.4473 7.93364 12.3565C7.89612 12.2657 7.87721 12.1683 7.87804 12.07Z" fill="#1998D3"/>
<path d="M20.5421 11.54L17.7021 8.68999C17.5609 8.55051 17.3705 8.47229 17.1721 8.47229C16.9736 8.47229 16.7832 8.55051 16.6421 8.68999C16.3521 8.97999 16.3521 9.45999 16.6421 9.74999L18.2021 11.31H14.1021V12.81H18.192L16.6321 14.37C16.3421 14.66 16.3421 15.14 16.6321 15.43C16.7821 15.58 16.9721 15.65 17.1621 15.65C17.3521 15.65 17.542 15.58 17.692 15.43L20.5321 12.58C20.8321 12.3 20.8321 11.83 20.5421 11.54Z" fill="#1998D3"/>
</svg>
