<svg width="200" height="200" viewBox="0 0 200 200" fill="none" xmlns="http://www.w3.org/2000/svg">
<circle cx="100" cy="100" r="100" fill="#8EDBFF" fill-opacity="0.4"/>
<path d="M100 100C107.846 100 115.371 96.8832 120.919 91.3353C126.467 85.7873 129.584 78.2627 129.584 70.4167C129.584 62.5707 126.467 55.0461 120.919 49.4981C115.371 43.9501 107.846 40.8333 100 40.8333C92.1543 40.8333 84.6297 43.9501 79.0817 49.4981C73.5337 55.0461 70.4169 62.5707 70.4169 70.4167C70.4169 78.2627 73.5337 85.7873 79.0817 91.3353C84.6297 96.8832 92.1543 100 100 100ZM100 114.792C70.3578 114.792 46.2178 134.672 46.2178 159.167C46.2178 160.823 47.5194 162.125 49.1761 162.125H150.824C152.481 162.125 153.783 160.823 153.783 159.167C153.783 134.672 129.643 114.792 100 114.792Z" fill="#1998D3"/>
</svg>
