<svg width="87" height="45" viewBox="0 0 87 45" fill="none" xmlns="http://www.w3.org/2000/svg">
<rect width="55" height="45" rx="5" fill="white"/>
<circle cx="67" cy="22" r="20" fill="white"/>
<path d="M64.8572 14.8571C62.9858 14.8571 61.4643 16.3786 61.4643 18.25C61.4643 20.0857 62.9 21.5714 64.7715 21.6357C64.8286 21.6286 64.8858 21.6286 64.9286 21.6357H64.9786C65.8567 21.6064 66.689 21.2368 67.2995 20.6049C67.91 19.9731 68.2509 19.1286 68.25 18.25C68.25 16.3786 66.7286 14.8571 64.8572 14.8571ZM68.4858 23.535C66.4929 22.2064 63.2429 22.2064 61.2358 23.535C60.3286 24.1421 59.8286 24.9636 59.8286 25.8421C59.8286 26.7207 60.3286 27.535 61.2286 28.135C62.2286 28.8064 63.5429 29.1421 64.8572 29.1421C66.1715 29.1421 67.4858 28.8064 68.4858 28.135C69.3858 27.5279 69.8858 26.7136 69.8858 25.8279C69.8786 24.9493 69.3858 24.135 68.4858 23.535ZM72.7072 18.67C72.8215 20.0557 71.8358 21.27 70.4715 21.4343H70.4358C70.3929 21.4343 70.35 21.4343 70.3143 21.4486C69.6215 21.4843 68.9858 21.2629 68.5072 20.8557C69.2429 20.1986 69.6643 19.2129 69.5786 18.1414C69.5296 17.5843 69.3404 17.0486 69.0286 16.5843C69.4029 16.4022 69.8158 16.3139 70.2319 16.327C70.6479 16.3401 71.0545 16.4542 71.4165 16.6595C71.7786 16.8648 72.0853 17.1551 72.3101 17.5054C72.535 17.8556 72.6713 18.2553 72.7072 18.67Z" fill="#008E5B"/>
<path d="M74.1342 25.2786C74.0771 25.9714 73.6342 26.5714 72.8914 26.9786C72.1771 27.3714 71.2771 27.5571 70.3842 27.5357C70.8985 27.0714 71.1985 26.4929 71.2556 25.8786C71.3271 24.9929 70.9056 24.1429 70.0628 23.4643C69.5842 23.0857 69.0271 22.7857 68.4199 22.5643C69.9985 22.1071 71.9842 22.4143 73.2056 23.4C73.8628 23.9286 74.1985 24.5929 74.1342 25.2786Z" fill="#008E5B"/>
<path d="M18.4659 32.2784C17.4186 32.2718 16.4077 32.0961 15.4332 31.7514C14.4654 31.4067 13.5971 30.8466 12.8281 30.071C12.0592 29.2955 11.4493 28.268 10.9986 26.9886C10.5545 25.7093 10.3324 24.1383 10.3324 22.2756C10.339 20.5653 10.5346 19.0374 10.919 17.6918C11.3101 16.3395 11.867 15.1927 12.5895 14.2514C13.3187 13.3101 14.1903 12.5942 15.2045 12.1037C16.2188 11.6065 17.3556 11.358 18.6151 11.358C19.974 11.358 21.1738 11.6231 22.2145 12.1534C23.2552 12.6771 24.0904 13.3897 24.7202 14.2912C25.3565 15.1927 25.741 16.2036 25.8736 17.3239H21.6278C21.4621 16.6146 21.1141 16.0578 20.5838 15.6534C20.0535 15.2491 19.3973 15.0469 18.6151 15.0469C17.2893 15.0469 16.2817 15.6236 15.5923 16.777C14.9096 17.9304 14.5616 19.4981 14.5483 21.4801H14.6875C14.9924 20.8769 15.4034 20.3632 15.9205 19.9389C16.4441 19.508 17.0374 19.1799 17.7003 18.9545C18.3698 18.7225 19.0758 18.6065 19.8182 18.6065C21.0246 18.6065 22.0985 18.8916 23.0398 19.4616C23.9811 20.0251 24.7235 20.8007 25.267 21.7884C25.8106 22.776 26.0824 23.9062 26.0824 25.179C26.0824 26.5578 25.7609 27.7841 25.1179 28.858C24.4815 29.9318 23.59 30.7737 22.4432 31.3835C21.303 31.9867 19.9773 32.285 18.4659 32.2784ZM18.446 28.8977C19.1089 28.8977 19.7022 28.7386 20.2259 28.4205C20.7495 28.1023 21.1605 27.6714 21.4588 27.1278C21.7571 26.5843 21.9062 25.9744 21.9062 25.2983C21.9062 24.6222 21.7571 24.0156 21.4588 23.4787C21.1671 22.9418 20.7628 22.5142 20.2457 22.196C19.7287 21.8778 19.1387 21.7188 18.4759 21.7188C17.9787 21.7188 17.518 21.8116 17.0938 21.9972C16.6761 22.1828 16.3082 22.4413 15.9901 22.7727C15.6785 23.1042 15.4332 23.4886 15.2543 23.9261C15.0753 24.357 14.9858 24.8177 14.9858 25.3082C14.9858 25.9645 15.1349 26.5644 15.4332 27.108C15.7382 27.6515 16.1491 28.0857 16.6662 28.4105C17.1899 28.7353 17.7831 28.8977 18.446 28.8977ZM29.1349 32V28.8977L36.3835 22.1861C37 21.5895 37.517 21.0526 37.9347 20.5753C38.3589 20.098 38.6804 19.6307 38.8991 19.1733C39.1179 18.7093 39.2273 18.2088 39.2273 17.6719C39.2273 17.0753 39.0914 16.5616 38.8196 16.1307C38.5478 15.6932 38.1766 15.3584 37.706 15.1264C37.2353 14.8878 36.7017 14.7685 36.1051 14.7685C35.482 14.7685 34.9384 14.8944 34.4744 15.1463C34.0104 15.3982 33.6525 15.7595 33.4006 16.2301C33.1487 16.7008 33.0227 17.2609 33.0227 17.9105H28.9361C28.9361 16.5781 29.2377 15.4214 29.8409 14.4403C30.4441 13.4593 31.2893 12.7003 32.3764 12.1634C33.4635 11.6264 34.7164 11.358 36.1349 11.358C37.5933 11.358 38.8627 11.6165 39.9432 12.1335C41.0303 12.6439 41.8755 13.3532 42.4787 14.2614C43.0819 15.1695 43.3835 16.2102 43.3835 17.3835C43.3835 18.1525 43.2311 18.9115 42.9261 19.6605C42.6278 20.4096 42.0942 21.2415 41.3253 22.1562C40.5563 23.0644 39.4725 24.1548 38.0739 25.4276L35.1009 28.3409V28.4801H43.652V32H29.1349Z" fill="black"/>
</svg>
