<svg width="60" height="60" viewBox="0 0 60 60" fill="none" xmlns="http://www.w3.org/2000/svg">
<circle cx="30" cy="30" r="29.5" stroke="#2F2F2F"/>
<path d="M30 30C31.3261 30 32.5979 29.4732 33.5355 28.5355C34.4732 27.5979 35 26.3261 35 25C35 23.6739 34.4732 22.4021 33.5355 21.4645C32.5979 20.5268 31.3261 20 30 20C28.6739 20 27.4022 20.5268 26.4645 21.4645C25.5268 22.4021 25 23.6739 25 25C25 26.3261 25.5268 27.5979 26.4645 28.5355C27.4022 29.4732 28.6739 30 30 30ZM30 32.5C24.99 32.5 20.91 35.86 20.91 40C20.91 40.28 21.13 40.5 21.41 40.5H38.59C38.87 40.5 39.09 40.28 39.09 40C39.09 35.86 35.01 32.5 30 32.5Z" fill="#2F2F2F"/>
</svg>
