<svg width="60" height="60" viewBox="0 0 60 60" fill="none" xmlns="http://www.w3.org/2000/svg">
<circle cx="30" cy="30" r="29.5" stroke="#2F2F2F"/>
<path d="M27 20C24.38 20 22.25 22.13 22.25 24.75C22.25 27.32 24.26 29.4 26.88 29.49C26.96 29.48 27.04 29.48 27.1 29.49H27.17C28.3994 29.449 29.5646 28.9315 30.4193 28.0469C31.274 27.1623 31.7512 25.98 31.75 24.75C31.75 22.13 29.62 20 27 20ZM32.08 32.149C29.29 30.289 24.74 30.289 21.93 32.149C20.66 32.999 19.96 34.149 19.96 35.379C19.96 36.609 20.66 37.749 21.92 38.589C23.32 39.529 25.16 39.999 27 39.999C28.84 39.999 30.68 39.529 32.08 38.589C33.34 37.739 34.04 36.599 34.04 35.359C34.03 34.129 33.34 32.989 32.08 32.149ZM37.99 25.338C38.15 27.278 36.77 28.978 34.86 29.208H34.81C34.75 29.208 34.69 29.208 34.64 29.228C33.67 29.278 32.78 28.968 32.11 28.398C33.14 27.478 33.73 26.098 33.61 24.598C33.5414 23.818 33.2765 23.0681 32.84 22.418C33.364 22.1631 33.9421 22.0395 34.5245 22.0578C35.107 22.0762 35.6762 22.2359 36.1831 22.5234C36.69 22.8108 37.1193 23.2172 37.4341 23.7075C37.7489 24.1979 37.9397 24.7575 37.99 25.338Z" fill="#2F2F2F"/>
<path d="M39.988 34.59C39.908 35.56 39.288 36.4 38.248 36.97C37.248 37.52 35.988 37.78 34.738 37.75C35.458 37.1 35.878 36.29 35.958 35.43C36.058 34.19 35.468 33 34.288 32.05C33.618 31.52 32.838 31.1 31.988 30.79C34.198 30.15 36.978 30.58 38.688 31.96C39.608 32.7 40.078 33.63 39.988 34.59Z" fill="#2F2F2F"/>
</svg>
