<svg width="24" height="24" viewBox="0 0 24 24" fill="none" xmlns="http://www.w3.org/2000/svg">
<path d="M21.97 18V19C21.97 20.65 21.97 22 18.97 22H4.96997C1.96997 22 1.96997 20.65 1.96997 19V18C1.96997 17.45 2.41997 17 2.96997 17H20.97C21.52 17 21.97 17.45 21.97 18ZM14.41 5.18C14.46 4.98 14.49 4.79 14.5 4.58C14.53 3.42 13.82 2.4 12.7 2.1C12.2714 1.97609 11.8174 1.96887 11.3851 2.07907C10.9527 2.18927 10.5576 2.41289 10.2406 2.72685C9.92361 3.04081 9.69617 3.43371 9.58178 3.86497C9.4674 4.29622 9.47023 4.7502 9.58997 5.18C7.80119 5.5644 6.1982 6.55025 5.04816 7.97324C3.89812 9.39623 3.27052 11.1704 3.26997 13V14.5C3.26997 15.05 3.71997 15.5 4.26997 15.5H19.72C20.27 15.5 20.72 15.05 20.72 14.5V13C20.72 9.16 18.02 5.96 14.41 5.18ZM15 11.75H8.99997C8.58997 11.75 8.24997 11.41 8.24997 11C8.24997 10.59 8.58997 10.25 8.99997 10.25H15C15.41 10.25 15.75 10.59 15.75 11C15.75 11.41 15.41 11.75 15 11.75Z" fill="#1998D3"/>
</svg>
